# xmcd
#
# Track frame offsets: 
#        150
#        19147
#        38740
#        59730
#        77285
#        97902
#        113822
#        134270
#        152057
#        179590
#        213930
#
# Disc length: 3315 seconds
#
# Revision: 0
# Processed by: cddbd v1.5.2PL0 Copyright (c) Steve Scherf et al.
# Submitted via: ExactAudioCopy v0.95b4
#
DISCID=8a0cf10b
DTITLE=Philippe Wynne - Philippe Wynne
DYEAR=1990
DGENRE=R&B
TTITLE0=Sexy Girl
TTITLE1=You Ain't Going Anywhere But Gone
TTITLE2=Help Us To Stand
TTITLE3=You Made Me Love You (Why Did You Do It)
TTITLE4=Let Me Go Love
TTITLE5=All The Way
TTITLE6=Did I Jump
TTITLE7=He Don't Love You
TTITLE8=Lovin' You Is Killing Me
TTITLE9=America We're Still #1
TTITLE10=Whip It
EXTD=
EXTT0=
EXTT1=
EXTT2=
EXTT3=
EXTT4=
EXTT5=
EXTT6=
EXTT7=
EXTT8=
EXTT9=
EXTT10=
PLAYORDER=
